<svg xmlns="http://www.w3.org/2000/svg" viewBox="0 0 711.77 711.73"><defs><style>.cls-1{fill:#f0f0f0;}.cls-2{fill:#666682;}.cls-3{fill:#c8c8ef;}.cls-4{fill:#444260;}.cls-5{fill:#181828;}.cls-6{fill:#e0a595;}.cls-7{fill:#665452;}.cls-10,.cls-8{fill:none;}.cls-8{stroke:#7b7bda;stroke-miterlimit:10;}.cls-9{fill:#aeaee8;}</style></defs><title>2021-09-27-</title><g id="Capa_2" data-name="Capa 2"><g id="Capa_1-2" data-name="Capa 1"><g id="Capa_1-2-2" data-name="Capa 1-2"><path class="cls-1" d="M0,355.86C0,505.42,92.26,633.43,223,686.08a357.28,357.28,0,0,0,253.2,4.8c137.34-49.32,235.57-180.7,235.57-335C711.73,159.32,552.41,0,355.87,0S0,159.32,0,355.86Z"/><path class="cls-2" d="M502.06,327.45s18.05,5.4,19.62,20,5.4,27.58,8.24,34.12,8.11,26.63,5.45,45.2,5.31,25.4,3.6,40-4.17,29.57-2.08,32.6,6.06,8.53,3.22,12.51,2,15.16,1,19.52,3.94,6.26-3.83,11.57c0,0-1.71,11.56-6.45,15,0,0-1.32,9.29-7.2,11.94,0,0-3.22,9.29-6.06,8.91,0,0-3.61,8.91-9.86,13.27a14.31,14.31,0,0,1-6.82,9.67C495,605,490.08,617.49,485.15,620c0,0,1.33,19.9-9.47,22.56,0,0-3.42,1.51,0,13.83s6.44,16.12-1.52,16.5l-8,.37s-15.35-1.89-24.07,1.33-30.33,4.74-34.69,3.22-65.58-4.45-88.9-1.61c0,0-7.64,1.14-18.61-6.82s-21.19-.29-35.12-8.53l-13.94-8.25s-9.38-2-11.65-8.24,1.14-13.36,4-15.35.57-2,5.12-9.67,6.54-173.86,6.54-173.86l-95.54-23s-3.41-17.49,4.27-28.58,9-8.1,14.93-20.47,3.41-11.68,11.94-19.91,24-21,29.51-29.56,2.9-5.12,7.59-11.94,14.88-23.88,17.44-27.1l2.56-3.23s1.61-2.56,6.44-1,40.66,8.44,41.61,14.12,0,14.41,0,14.41,1.64-6.83,4.32-9.29,4,0,12.17-.76,5.31.57,10.61-4.55,62.36-31.46,62.36-31.46l19.83-4s16.35-1.71,21.54,0,7.11,4.69,6.83,8.95c0,0,7.53-2.13,11.58,1.92s6.66,7.42,9.69,9.5,13.84,9,17.25,14.6S477,300.76,482,301.9l5,1.13s1.14-.85,5.83,3.42l4.69,4.26s9.67-2.13,10.52,2.7S510.31,328.16,502.06,327.45Z"/><path class="cls-3" d="M420.6,423.4S458.42,569,481.16,612.47c0,0-4.55,17.35-216.93,5.41,0,0-75.49.28-85.3-4.41,0,0-38.36-93.18-65.21-149.16-.16-.32-.3-.65-.47-1-25.94-49-26.72-48.67-26.72-48.67s25.21.76,61.79,4.55,134.77,1.33,157.51,13.08C305.83,432.31,380.37,418.85,420.6,423.4Z"/><path class="cls-4" d="M223,686.08a357.28,357.28,0,0,0,253.2,4.8c-.23-6.75-.51-13.22-.74-18.13-.24-5.39-.43-8.91-.43-8.91s-32.51-1.61-34.21-1c-.49.16-16.32-2.77-38.81-6.9-19.83-3.65-44.82-8.23-69-12.45-43.51-7.57-84.54-14-88.7-11.74-5.13,2.78-5.44,8.51-4.8,13.18h0c.49,3.62,1.55,6.6,1.38,7.1-.38,1.13,0,0-2.85,4s-5.68.75-8.91,3-.37,7.39-.94,13.08-2.47,9.28-4.74,13.27Z"/><path class="cls-5" d="M420.73,262.91s9.38-.72,2.55,11.23-18.19,25.24-20,28.54-5.69-24-5.69-24l2.14-15.78Z"/><path class="cls-6" d="M417.85,282.67s-9-10.38-8.9-13.65a27.52,27.52,0,0,0,.14-3.27c0-3-.15-16.78-.15-16.78s6.55-14.64,1.85-30.13-10.52-10.81-12.51-7.25-22.74-6.83-29.14-8.11-18-1.42-18-1.42l-57.2,18.34s23.6,55.3,25.59,57.6,4,9,5.4,12.8,7.25,14.5,19.62,25.3,20.18,12.65,23.31,17.06,23.17,3.27,30.42-11.66,10.24-18.76,11.09-23.74S417.85,282.67,417.85,282.67Z"/><path class="cls-7" d="M396.29,242.56s-5.26-11.92-9.09-12.64-9.24.15-11.8-2.13-3.13-7.25-3.7-8.39-2.84-8-7.68-7.67-9.52,3.27-15.92,8.81-6.25,9.24-10.09,7.82a13,13,0,0,1-6.83,7.68c-5.54,2.7-1.27,4.55-6.25,4.69s-9.52-1.28-13.93.42-9.21,3-11.08-.42-24.6-28.58-16.07-48.19,10-11.8,15.21-18.91,10.09-8.25,21.6-12.08,4.13-.43,12.51-4.7l8.39-4.26s9.24-2.27,16.21,3.7,11.09,2.7,17.2,5.54,10.66,4.55,10.38,11.23,4,10.52,6.82,15.21,5.69,8.67,6,13.08-.55,8.1-.84,10.88-1.43,3.48-1.43,9.59S397.15,241,397.15,241Z"/><path class="cls-5" d="M293.89,308.11S280.08,313.18,268,301c-10.43-10.56-18.45-18.45-13.62-18.16s37,8.22,38.24,12.71S295,298.45,293.89,308.11Z"/><path class="cls-6" d="M276.17,306.79S262.1,298.41,263,293.4s1.35-7.09,2.64-14.23c.46-2.48.75-5.45.75-5.45s-2.19-33.42.5-54.84,2.7-14.72,2.7-21.41,1.8-9.23,4.49-11,12.13-5.8,20.37-3.12,8.54,5,13.78,8.47,9.89,11.6,3.15,10.86l-6.74-.74s-5.4-2.23-9.44,6.39-3.44,12.2-3.44,12.2,7.19-10.11,10.63-12.49,11.23-2.53,15.28-1,6.29,4.17,6,8.63-.6,5.06-5.39,3.87-5.4-3.72-8.09.74-4.49,15.32-4.05,20.53l.45,5.2s1.5,21.87-3,31.68-19,29.16-19,29.16S282.61,310.06,276.17,306.79Z"/><line class="cls-8" x1="305.28" y1="436.9" x2="355.87" y2="599.03"/><polyline class="cls-8" points="293.89 581.35 308.4 550.69 275.66 534.07 293.89 490.42 238.25 464.96 223.18 498.21 242.41 506.01 230.46 536.14 179.02 546.53 183.69 518.38 156.93 508.08"/><polyline class="cls-8" points="208.45 442.8 190.82 434.46 181.25 453.29 156.15 442.8 141.5 474.8 160.63 483.47 165.11 472.41 180.45 471.97 190.52 494.54 172.23 506.19 189.02 512.76"/><circle class="cls-9" cx="210.8" cy="520.64" r="11.52"/><line class="cls-8" x1="300.97" y1="566.39" x2="266.83" y2="550.17"/><polyline class="cls-8" points="271.03 565.16 257.93 597.07 199.28 573.93 214.64 540.87"/><path class="cls-8" d="M410.58,442.79s-52.3-1.39-83.31,8.83"/><path class="cls-8" d="M414.41,456.49s-52.31-1.38-83.31,8.84"/><path class="cls-8" d="M418.24,470.2s-52.31-1.39-83.31,8.8"/><path class="cls-8" d="M422.06,483.9s-52.33-1.39-83.33,8.83"/><path class="cls-8" d="M425.89,497.6s-52.31-1.39-83.31,8.83"/><path class="cls-8" d="M429.73,511.3s-52.31-1.38-83.31,8.84"/><path class="cls-8" d="M433.54,525s-52.3-1.39-83.31,8.83"/><path class="cls-8" d="M437.37,538.71s-52.31-1.39-83.31,8.83"/><path class="cls-8" d="M441.2,552.41s-52.31-1.38-83.31,8.83"/><path class="cls-8" d="M445,566.11s-52.29-1.38-83.29,8.89"/><path class="cls-8" d="M448.85,579.82s-52.31-1.39-83.31,8.83"/><path class="cls-8" d="M452.73,593.52s-52.31-1.39-83.31,8.83"/><path class="cls-8" d="M456.5,607.22s-52.3-1.38-83.31,8.83"/><path class="cls-6" d="M417.93,640.12a14.35,14.35,0,0,0-5.47-15.92,25.34,25.34,0,0,0-18.58-4.62c-16.2,2.43-46.92-22.17-52.32-20.47s-8.83,2.89-10.83,7.39c0,0-4.84-2.27-9.67,3.7s-3.69,13.65,0,16.77,9.9,8.27,11.66,12.51S329,650.86,333.86,654s20.77,15.36,26.72,18.3,7.68,9.49,18.77,0c0,0,4.26,3.3,12.22-8.07,0,0,8.53.41,10.38-8.32C402,655.9,413,656.41,417.93,640.12Z"/><line class="cls-8" x1="290.26" y1="499.12" x2="256.96" y2="483.83"/><line class="cls-8" x1="285.2" y1="511.24" x2="251.9" y2="495.95"/><polygon class="cls-9" points="198.44 483.06 215.45 483.06 223.95 468.34 215.45 453.61 198.44 453.61 189.94 468.34 198.44 483.06"/><rect class="cls-9" x="224.35" y="552.21" width="21.5" height="35.52" transform="translate(-381.36 580.89) rotate(-68.6)"/><rect class="cls-9" x="285.82" y="519.96" width="15.13" height="21.5" transform="translate(-311.55 572.85) rotate(-65.05)"/><rect class="cls-9" x="293.63" y="503.18" width="15.13" height="21.5" transform="translate(-291.83 570.23) rotate(-65.05)"/><rect class="cls-9" x="279.21" y="464.35" width="15.13" height="21.5" transform="translate(-263.21 549.13) rotate(-66.55)"/><rect class="cls-9" x="286.58" y="447.36" width="15.13" height="21.5" transform="translate(-243.18 545.66) rotate(-66.55)"/><rect class="cls-9" x="249.93" y="451.09" width="15.13" height="21.5" transform="translate(-268.67 514.28) rotate(-66.55)"/><rect class="cls-9" x="257.3" y="434.09" width="15.13" height="21.5" transform="translate(-248.64 510.81) rotate(-66.55)"/><path class="cls-10" d="M0,355.86C0,505.42,92.26,633.43,223,686.08a357.28,357.28,0,0,0,253.2,4.8c137.34-49.32,235.57-180.7,235.57-335C711.73,159.32,552.41,0,355.87,0S0,159.32,0,355.86Z"/></g></g></g></svg>