<svg xmlns="http://www.w3.org/2000/svg" width="16" height="16" viewBox="0 0 16 16">
  <path id="kart" d="M4.8,16a1.6,1.6,0,1,1,1.6-1.6A1.6,1.6,0,0,1,4.8,16Zm8-.008a1.592,1.592,0,1,1,1.6-1.592A1.6,1.6,0,0,1,12.8,15.992Zm.8-3.992H4.8a1.582,1.582,0,0,1-1.372-.781A1.6,1.6,0,0,1,3.4,9.624l1.08-1.952L1.6,1.6H.8A.8.8,0,0,1,.8,0H2.112a.788.788,0,0,1,.719.456L3.367,1.6H15.2a.8.8,0,0,1,.7,1.184L13.035,7.976a1.593,1.593,0,0,1-1.4.824H5.678L4.8,10.4h8.8a.8.8,0,0,1,0,1.6Z" transform="translate(0)" fill="#1112c0"/>
</svg>
